<svg width="32" height="12" viewBox="0 0 32 12" fill="none" xmlns="http://www.w3.org/2000/svg">
<path d="M13.8736 11.015H11.264L12.8949 0.991904H15.5047L13.8736 11.015ZM9.06872 0.991904L6.58091 7.88586L6.28653 6.40132L6.2868 6.40186L5.40873 1.89437C5.40873 1.89437 5.30256 0.991904 4.17086 0.991904H0.0580258L0.00976562 1.16162C0.00976562 1.16162 1.26748 1.42329 2.73941 2.30726L5.00656 11.0153H7.72548L11.8772 0.991904H9.06872ZM29.594 11.015H31.9901L29.901 0.991636H27.8033C26.8346 0.991636 26.5987 1.73859 26.5987 1.73859L22.7068 11.015H25.427L25.971 9.52617H29.2884L29.594 11.015ZM26.7225 7.46948L28.0937 3.7186L28.865 7.46948H26.7225ZM22.9108 3.40223L23.2832 1.24983C23.2832 1.24983 22.1341 0.812805 20.9362 0.812805C19.6412 0.812805 16.5659 1.37879 16.5659 4.13095C16.5659 6.72038 20.1753 6.75255 20.1753 8.11268C20.1753 9.47281 16.9378 9.2291 15.8694 8.37141L15.4814 10.6219C15.4814 10.6219 16.6466 11.1879 18.4269 11.1879C20.2077 11.1879 22.8942 10.2659 22.8942 7.75636C22.8942 5.15031 19.2524 4.90767 19.2524 3.77463C19.2527 2.64133 21.7941 2.78691 22.9108 3.40223Z" fill="#2566AF"/>
</svg>
